<?xml version="1.0" standalone="no"?>
<!DOCTYPE svg PUBLIC "-//W3C//DTD SVG 20010904//EN"
 "http://www.w3.org/TR/2001/REC-SVG-20010904/DTD/svg10.dtd">
<svg version="1.0" xmlns="http://www.w3.org/2000/svg"
 width="512.000000pt" height="512.000000pt" viewBox="0 0 512.000000 512.000000"
 preserveAspectRatio="xMidYMid meet">

<g transform="translate(0.000000,512.000000) scale(0.100000,-0.100000)"
fill="#000000" stroke="none">
<path d="M814 4576 c-81 -36 -87 -145 -11 -188 17 -10 372 -14 1671 -18 l1650
-5 -1658 -1749 c-911 -962 -1669 -1764 -1684 -1784 -24 -31 -27 -45 -27 -108
0 -66 3 -76 31 -111 17 -21 46 -47 65 -58 34 -20 55 -20 1719 -23 1177 -2
1696 0 1722 8 91 26 107 146 25 192 -17 10 -372 14 -1671 18 l-1650 5 1658
1749 c911 962 1669 1764 1684 1784 24 31 27 45 27 108 0 66 -3 76 -31 111 -17
21 -46 47 -65 58 -34 20 -54 20 -1729 22 -1414 2 -1700 0 -1726 -11z"/>
</g>
</svg>
